<svg width="30" height="32" viewBox="0 0 30 32" fill="none" xmlns="http://www.w3.org/2000/svg">
<path d="M10 0.333252C10.9205 0.333252 11.6667 1.07944 11.6667 1.99992V3.66659H18.3333V1.99992C18.3333 1.07944 19.0795 0.333252 20 0.333252C20.9205 0.333252 21.6667 1.07944 21.6667 1.99992V3.66659H26.6667C28.5076 3.66659 30 5.15897 30 6.99992V28.6666C30 30.5075 28.5076 31.9999 26.6667 31.9999H3.33333C1.49238 31.9999 0 30.5075 0 28.6666V6.99992C0 5.15897 1.49238 3.66659 3.33333 3.66659H8.33333V1.99992C8.33333 1.07944 9.07952 0.333252 10 0.333252ZM8.33333 6.99992H3.33333V11.9999H26.6667V6.99992H21.6667V8.66658C21.6667 9.58706 20.9205 10.3333 20 10.3333C19.0795 10.3333 18.3333 9.58706 18.3333 8.66658V6.99992H11.6667V8.66658C11.6667 9.58706 10.9205 10.3333 10 10.3333C9.07952 10.3333 8.33333 9.58706 8.33333 8.66658V6.99992ZM26.6667 15.3333H3.33333V28.6666H26.6667V15.3333Z" fill="url(#paint0_linear)"/>
<defs>
<linearGradient id="paint0_linear" x1="0" y1="0.333252" x2="29.9677" y2="0.333252" gradientUnits="userSpaceOnUse">
<stop stop-color="#4CA85B"/>
<stop offset="1" stop-color="#54B8B9"/>
</linearGradient>
</defs>
</svg>
