<svg width="22" height="22" viewBox="0 0 22 22" fill="none" xmlns="http://www.w3.org/2000/svg">
<path fill-rule="evenodd" clip-rule="evenodd" d="M0.375 10.8125C0.375 4.84092 5.21592 0 11.1875 0C17.1591 0 22 4.84092 22 10.8125C22 16.7841 17.1591 21.625 11.1875 21.625C5.21592 21.625 0.375 16.7841 0.375 10.8125Z" fill="#BDBEBF"/>
<path fill-rule="evenodd" clip-rule="evenodd" d="M8.17216 6.67793C8.15625 5.95607 7.64004 5.40625 6.80179 5.40625C5.96355 5.40625 5.41553 5.95607 5.41553 6.67793C5.41553 7.38485 5.94735 7.9505 6.76999 7.9505H6.78565C7.64004 7.9505 8.17216 7.38485 8.17216 6.67793ZM8.01134 8.95564H5.56099V16.3179H8.01134V8.95564ZM14.0294 8.78208C15.6418 8.78208 16.8506 9.83456 16.8506 12.0959L16.8505 16.3172H14.4003V12.3784C14.4003 11.3891 14.0457 10.714 13.1587 10.714C12.4817 10.714 12.0785 11.1691 11.9014 11.6087C11.8366 11.7662 11.8207 11.9857 11.8207 12.2057V16.3174H9.37007C9.37007 16.3174 9.40236 9.64599 9.37007 8.95515H11.8207V9.99796C12.1459 9.49666 12.7284 8.78208 14.0294 8.78208Z" fill="white"/>
</svg>
