<svg width="23" height="22" viewBox="0 0 23 22" fill="none" xmlns="http://www.w3.org/2000/svg">
<path fill-rule="evenodd" clip-rule="evenodd" d="M0.75 10.8125C0.75 4.84092 5.59092 0 11.5625 0C17.5341 0 22.375 4.84092 22.375 10.8125C22.375 16.7841 17.5341 21.625 11.5625 21.625C5.59092 21.625 0.75 16.7841 0.75 10.8125Z" fill="#BDBEBF"/>
<path fill-rule="evenodd" clip-rule="evenodd" d="M11.2378 8.78846L11.2605 9.1626L10.8823 9.11679C9.50586 8.94117 8.30332 8.34561 7.2823 7.34536L6.78313 6.84906L6.65456 7.21556C6.38229 8.03255 6.55624 8.89536 7.12347 9.47565C7.426 9.79634 7.35793 9.84215 6.83608 9.65127C6.65456 9.59018 6.49574 9.54437 6.48061 9.56728C6.42767 9.62073 6.60918 10.3156 6.75288 10.5904C6.94952 10.9722 7.35037 11.3463 7.78903 11.5678L8.15962 11.7434L7.72096 11.751C7.29743 11.751 7.2823 11.7587 7.32768 11.919C7.47894 12.4153 8.07643 12.9421 8.74198 13.1712L9.2109 13.3316L8.80249 13.5759C8.19744 13.9271 7.4865 14.1256 6.77557 14.1409C6.43523 14.1485 6.1554 14.1791 6.1554 14.202C6.1554 14.2783 7.0781 14.7059 7.61508 14.8739C9.22602 15.3702 11.1395 15.1564 12.5765 14.3089C13.5975 13.7057 14.6185 12.5069 15.095 11.3463C15.3521 10.7279 15.6093 9.59782 15.6093 9.0557C15.6093 8.70447 15.632 8.65866 16.0555 8.23871C16.3051 7.99438 16.5396 7.72713 16.5849 7.65078C16.6606 7.50571 16.653 7.50571 16.2673 7.63551C15.6244 7.86457 15.5337 7.83403 15.8513 7.49044C16.0858 7.2461 16.3656 6.80325 16.3656 6.67344C16.3656 6.65054 16.2522 6.68871 16.1236 6.75743C15.9875 6.83379 15.6849 6.94832 15.458 7.01704L15.0496 7.14684L14.679 6.89487C14.4748 6.75743 14.1874 6.60472 14.0362 6.55891C13.6504 6.45202 13.0605 6.46729 12.7126 6.58945C11.7672 6.93305 11.1697 7.81876 11.2378 8.78846Z" fill="white"/>
</svg>
